/vscmnt/brussel_pixiu_data/_data_brussel/112/vsc11236/PredSimResults/SUBJ04opt3D/expIG/worker_02.mot
version=1
nRows=5
nColumns=50
inDegrees=yes
endheader
                time	         pelvis_tilt	         pelvis_list	     pelvis_rotation	           pelvis_tx	           pelvis_ty	           pelvis_tz	       hip_flexion_r	     hip_adduction_r	      hip_rotation_r	        knee_angle_r	       ankle_angle_r	         mtp_angle_r	       hip_flexion_l	     hip_adduction_l	      hip_rotation_l	        knee_angle_l	       ankle_angle_l	         mtp_angle_l	    lumbar_extension	      lumbar_bending	     lumbar_rotation	 ercspn_r/activation	 intobl_r/activation	 extobl_r/activation	    abd_r/activation	    add_r/activation	hamstrings_r/activation	bifemsh_r/activation	glut_max_r/activation	iliopsoas_r/activation	rect_fem_r/activation	  vasti_r/activation	gastroc_r/activation	 soleus_r/activation	tib_ant_r/activation	 ercspn_l/activation	 intobl_l/activation	 extobl_l/activation	    abd_l/activation	    add_l/activation	hamstrings_l/activation	bifemsh_l/activation	glut_max_l/activation	iliopsoas_l/activation	rect_fem_l/activation	  vasti_l/activation	gastroc_l/activation	 soleus_l/activation	tib_ant_l/activation	
          0.91438677	         -2.80820043	         -6.83956116	         -6.44859340	          0.64007074	          0.87044766	         -0.00302954	        -12.63208683	          6.36968586	        -12.28303493	         -7.28043166	         13.46898200	         19.67419382	         33.79439506	         -6.98451772	         -2.30340312	        -13.25670256	          1.32259660	          0.22818771	        -14.32915373	         17.29584625	          3.56221845	          0.02184609	          0.00999999	          0.00999999	          0.05238507	          0.01304794	          0.01645034	          0.15756156	          0.01702490	          0.06232445	          0.00999999	          0.00999999	          0.22778140	          0.22718417	          0.00999999	          0.00999999	          0.06432747	          0.06275645	          0.00999999	          0.09974583	          0.03697115	          0.13649688	          0.06669168	          0.13279603	          0.06988908	          0.02167532	          0.02221402	          0.01667357	          0.28670263	
          0.93267451	         -2.98865333	         -6.67775996	         -5.69650417	          0.65663644	          0.86815089	         -0.00454726	        -13.13231192	          6.15729192	        -13.56136093	         -8.02833128	         13.11171473	         21.28461533	         33.25190168	         -6.44093676	         -2.46062701	        -13.64307436	          0.84367171	          0.22134831	        -13.83003122	         16.18653220	          4.06540180	          0.01674293	          0.00999999	          0.00999999	          0.04014811	          0.00999999	          0.01260760	          0.12075575	          0.01304794	          0.06289579	          0.03781917	          0.00999999	          0.17937521	          0.21547222	          0.00999999	          0.00999999	          0.07328065	          0.04809677	          0.05367050	          0.07894853	          0.04652802	          0.10461169	          0.06617247	          0.10177535	          0.05356324	          0.01661204	          0.01702490	          0.01277868	          0.32090822	
          0.95096225	         -3.15867505	         -6.52814183	         -4.87498271	          0.67343042	          0.86653398	         -0.00616168	        -13.43890399	          5.91933549	        -14.88476198	         -9.16575039	         12.52577514	         22.97028333	         32.83768710	         -5.96558073	         -2.69996900	        -14.20876715	          0.27791761	          0.20375859	        -13.32830107	         15.04559778	          4.55823567	          0.02821509	          0.00999999	          0.00999999	          0.03076965	          0.00999999	          0.00999999	          0.09254763	          0.00999999	          0.04820356	          0.02898475	          0.01699742	          0.13747380	          0.19977399	          0.00999999	          0.01555998	          0.05616255	          0.03686153	          0.07307419	          0.07592975	          0.04698254	          0.08017478	          0.05071482	          0.07800099	          0.04105106	          0.08103290	          0.01304794	          0.00999999	          0.35311218	
          0.96924998	         -3.32278193	         -6.39165234	         -3.98845275	          0.69016494	          0.86592123	         -0.00792599	        -13.46193846	          5.62384504	        -16.25014971	        -10.79518851	         11.61259245	         24.74835556	         32.53986384	         -5.51725869	         -3.00069485	        -14.98332701	         -0.08539267	          0.18162342	        -12.85804273	         13.89059226	          5.04553178	          0.05419882	          0.00999999	          0.00999999	          0.02358197	          0.00999999	          0.01000000	          0.07092884	          0.00999999	          0.03694338	          0.02221401	          0.04224822	          0.10536041	          0.15733931	          0.00999999	          0.02219181	          0.04304318	          0.02825081	          0.09368278	          0.06680410	          0.05276093	          0.06144623	          0.06319094	          0.05978024	          0.03146168	          0.12261955	          0.00999999	          0.00999999	          0.36120101	
          0.98753772	         -3.48437681	         -6.26162390	         -3.04973112	          0.70672386	          0.86647967	         -0.00986600	        -13.20318347	          5.24699809	        -17.65238064	        -12.86799214	         10.28956569	         26.56887305	         32.23702881	         -5.05154487	         -3.21691759	        -15.76697094	         -0.19570756	          0.16536563	        -12.42493474	         12.73275717	          5.53491135	          0.09153008	          0.00999999	          0.00999999	          0.01807331	          0.02020535	          0.01626146	          0.05436011	          0.01858400	          0.02831354	          0.01702490	          0.05161001	          0.08074859	          0.12058541	          0.00999999	          0.03031149	          0.03298845	          0.02165152	          0.10847197	          0.07099796	          0.05934076	          0.04709261	          0.08638353	          0.04581579	          0.02411234	          0.14024569	          0.00999999	          0.00999999	          0.35345713	
